<svg width="1200" height="1384" viewBox="0 0 1200 1384" xmlns="http://www.w3.org/2000/svg" role="img" aria-label="schematic analysis fixture">
  <g transform="translate(0, 0)">
    <style>
              .boundary { fill: rgb(245, 241, 237); }
              .schematic-boundary { fill: none; stroke: #fff; }
              .component { fill: none; stroke: rgb(132, 0, 0); }
              .chip { fill: rgb(255, 255, 194); stroke: rgb(132, 0, 0); }
              .component-pin { fill: none; stroke: rgb(132, 0, 0); }
              /* Basic per-trace hover fallback */
              .trace:hover {
                filter: invert(1);
              }
              .trace:hover .trace-crossing-outline {
                opacity: 0;
              }
              .trace:hover .trace-junction {
                filter: invert(1);
              }
              /* Net-hover highlighting: when a trace or its overlays are hovered,
                 invert color for all traces (base + overlays) sharing the same
                 subcircuit connectivity key. Also hide crossing outline during hover. */
              svg:has(:is(g.trace[data-subcircuit-connectivity-map-key="unnamedsubcircuitsubcircuit_source_group_0_connectivity_net1"], g.trace-overlays[data-subcircuit-connectivity-map-key="unnamedsubcircuitsubcircuit_source_group_0_connectivity_net1"]):hover) :is(g.trace[data-subcircuit-connectivity-map-key="unnamedsubcircuitsubcircuit_source_group_0_connectivity_net1"], g.trace-overlays[data-subcircuit-connectivity-map-key="unnamedsubcircuitsubcircuit_source_group_0_connectivity_net1"]) { filter: invert(1); }
svg:has(:is(g.trace[data-subcircuit-connectivity-map-key="unnamedsubcircuitsubcircuit_source_group_0_connectivity_net1"], g.trace-overlays[data-subcircuit-connectivity-map-key="unnamedsubcircuitsubcircuit_source_group_0_connectivity_net1"]):hover) g.trace-overlays[data-subcircuit-connectivity-map-key="unnamedsubcircuitsubcircuit_source_group_0_connectivity_net1"] .trace-crossing-outline { opacity: 0; }
svg:has(:is(g.trace[data-subcircuit-connectivity-map-key="unnamedsubcircuitsubcircuit_source_group_0_connectivity_net2"], g.trace-overlays[data-subcircuit-connectivity-map-key="unnamedsubcircuitsubcircuit_source_group_0_connectivity_net2"]):hover) :is(g.trace[data-subcircuit-connectivity-map-key="unnamedsubcircuitsubcircuit_source_group_0_connectivity_net2"], g.trace-overlays[data-subcircuit-connectivity-map-key="unnamedsubcircuitsubcircuit_source_group_0_connectivity_net2"]) { filter: invert(1); }
svg:has(:is(g.trace[data-subcircuit-connectivity-map-key="unnamedsubcircuitsubcircuit_source_group_0_connectivity_net2"], g.trace-overlays[data-subcircuit-connectivity-map-key="unnamedsubcircuitsubcircuit_source_group_0_connectivity_net2"]):hover) g.trace-overlays[data-subcircuit-connectivity-map-key="unnamedsubcircuitsubcircuit_source_group_0_connectivity_net2"] .trace-crossing-outline { opacity: 0; }
svg:has(:is(g.trace[data-subcircuit-connectivity-map-key="unnamedsubcircuitsubcircuit_source_group_0_connectivity_net5"], g.trace-overlays[data-subcircuit-connectivity-map-key="unnamedsubcircuitsubcircuit_source_group_0_connectivity_net5"]):hover) :is(g.trace[data-subcircuit-connectivity-map-key="unnamedsubcircuitsubcircuit_source_group_0_connectivity_net5"], g.trace-overlays[data-subcircuit-connectivity-map-key="unnamedsubcircuitsubcircuit_source_group_0_connectivity_net5"]) { filter: invert(1); }
svg:has(:is(g.trace[data-subcircuit-connectivity-map-key="unnamedsubcircuitsubcircuit_source_group_0_connectivity_net5"], g.trace-overlays[data-subcircuit-connectivity-map-key="unnamedsubcircuitsubcircuit_source_group_0_connectivity_net5"]):hover) g.trace-overlays[data-subcircuit-connectivity-map-key="unnamedsubcircuitsubcircuit_source_group_0_connectivity_net5"] .trace-crossing-outline { opacity: 0; }
svg:has(:is(g.trace[data-subcircuit-connectivity-map-key="unnamedsubcircuitsubcircuit_source_group_0_connectivity_net7"], g.trace-overlays[data-subcircuit-connectivity-map-key="unnamedsubcircuitsubcircuit_source_group_0_connectivity_net7"]):hover) :is(g.trace[data-subcircuit-connectivity-map-key="unnamedsubcircuitsubcircuit_source_group_0_connectivity_net7"], g.trace-overlays[data-subcircuit-connectivity-map-key="unnamedsubcircuitsubcircuit_source_group_0_connectivity_net7"]) { filter: invert(1); }
svg:has(:is(g.trace[data-subcircuit-connectivity-map-key="unnamedsubcircuitsubcircuit_source_group_0_connectivity_net7"], g.trace-overlays[data-subcircuit-connectivity-map-key="unnamedsubcircuitsubcircuit_source_group_0_connectivity_net7"]):hover) g.trace-overlays[data-subcircuit-connectivity-map-key="unnamedsubcircuitsubcircuit_source_group_0_connectivity_net7"] .trace-crossing-outline { opacity: 0; }
svg:has(:is(g.trace[data-subcircuit-connectivity-map-key="unnamedsubcircuitsubcircuit_source_group_0_connectivity_net6"], g.trace-overlays[data-subcircuit-connectivity-map-key="unnamedsubcircuitsubcircuit_source_group_0_connectivity_net6"]):hover) :is(g.trace[data-subcircuit-connectivity-map-key="unnamedsubcircuitsubcircuit_source_group_0_connectivity_net6"], g.trace-overlays[data-subcircuit-connectivity-map-key="unnamedsubcircuitsubcircuit_source_group_0_connectivity_net6"]) { filter: invert(1); }
svg:has(:is(g.trace[data-subcircuit-connectivity-map-key="unnamedsubcircuitsubcircuit_source_group_0_connectivity_net6"], g.trace-overlays[data-subcircuit-connectivity-map-key="unnamedsubcircuitsubcircuit_source_group_0_connectivity_net6"]):hover) g.trace-overlays[data-subcircuit-connectivity-map-key="unnamedsubcircuitsubcircuit_source_group_0_connectivity_net6"] .trace-crossing-outline { opacity: 0; }
svg:has(:is(g.trace[data-subcircuit-connectivity-map-key="unnamedsubcircuitsubcircuit_source_group_0_connectivity_net8"], g.trace-overlays[data-subcircuit-connectivity-map-key="unnamedsubcircuitsubcircuit_source_group_0_connectivity_net8"]):hover) :is(g.trace[data-subcircuit-connectivity-map-key="unnamedsubcircuitsubcircuit_source_group_0_connectivity_net8"], g.trace-overlays[data-subcircuit-connectivity-map-key="unnamedsubcircuitsubcircuit_source_group_0_connectivity_net8"]) { filter: invert(1); }
svg:has(:is(g.trace[data-subcircuit-connectivity-map-key="unnamedsubcircuitsubcircuit_source_group_0_connectivity_net8"], g.trace-overlays[data-subcircuit-connectivity-map-key="unnamedsubcircuitsubcircuit_source_group_0_connectivity_net8"]):hover) g.trace-overlays[data-subcircuit-connectivity-map-key="unnamedsubcircuitsubcircuit_source_group_0_connectivity_net8"] .trace-crossing-outline { opacity: 0; }
svg:has(:is(g.trace[data-subcircuit-connectivity-map-key="unnamedsubcircuitsubcircuit_source_group_0_connectivity_net11"], g.trace-overlays[data-subcircuit-connectivity-map-key="unnamedsubcircuitsubcircuit_source_group_0_connectivity_net11"]):hover) :is(g.trace[data-subcircuit-connectivity-map-key="unnamedsubcircuitsubcircuit_source_group_0_connectivity_net11"], g.trace-overlays[data-subcircuit-connectivity-map-key="unnamedsubcircuitsubcircuit_source_group_0_connectivity_net11"]) { filter: invert(1); }
svg:has(:is(g.trace[data-subcircuit-connectivity-map-key="unnamedsubcircuitsubcircuit_source_group_0_connectivity_net11"], g.trace-overlays[data-subcircuit-connectivity-map-key="unnamedsubcircuitsubcircuit_source_group_0_connectivity_net11"]):hover) g.trace-overlays[data-subcircuit-connectivity-map-key="unnamedsubcircuitsubcircuit_source_group_0_connectivity_net11"] .trace-crossing-outline { opacity: 0; }
              .text { font-family: sans-serif; fill: rgb(0, 150, 0); }
              .pin-number { fill: rgb(169, 0, 0); }
              .port-label { fill: rgb(0, 100, 100); }
              .component-name { fill: rgb(0, 100, 100); }

            </style><rect class="boundary" x="0" y="0" width="1200" height="600"/><g class="trace sch-trace" data-layer="base" data-circuit-json-type="schematic_trace" data-schematic-trace-id="schematic_trace_0" data-subcircuit-connectivity-map-key="unnamedsubcircuitsubcircuit_source_group_0_connectivity_net1"><path d="M 249.46971707021999 94.6689875976 L 256.14275090498836 94.6689875976 L 256.14275090498836 137.68032449298838" class="trace-invisible-hover-outline sch-trace-hitbox" stroke="rgb(0, 150, 0)" fill="none" stroke-width="10.571142708544px" stroke-linecap="round" opacity="0" stroke-linejoin="round"/><path class="sch-trace-path" d="M 249.46971707021999 94.6689875976 L 256.14275090498836 94.6689875976 L 256.14275090498836 137.68032449298838" stroke="rgb(0, 150, 0)" fill="none" stroke-width="1.321392838568px" stroke-linecap="round" stroke-linejoin="round"/></g><g class="trace sch-trace" data-layer="base" data-circuit-json-type="schematic_trace" data-schematic-trace-id="schematic_trace_1" data-subcircuit-connectivity-map-key="unnamedsubcircuitsubcircuit_source_group_0_connectivity_net2"><path d="M 643.905479382768 94.6689875976 L 650.5785132175364 94.6689875976 L 650.5785132175364 74.7820253771516" class="trace-invisible-hover-outline sch-trace-hitbox" stroke="rgb(0, 150, 0)" fill="none" stroke-width="10.571142708544px" stroke-linecap="round" opacity="0" stroke-linejoin="round"/><path class="sch-trace-path" d="M 643.905479382768 94.6689875976 L 650.5785132175364 94.6689875976 L 650.5785132175364 74.7820253771516" stroke="rgb(0, 150, 0)" fill="none" stroke-width="1.321392838568px" stroke-linecap="round" stroke-linejoin="round"/></g><g class="trace sch-trace" data-layer="base" data-circuit-json-type="schematic_trace" data-schematic-trace-id="schematic_trace_2" data-subcircuit-connectivity-map-key="unnamedsubcircuitsubcircuit_source_group_0_connectivity_net5"><path d="M 1042.30542021102 96.65107685545198 L 1044.287509468872 96.65107685545198 L 1050.9605433036404 96.65107685545198 L 1050.9605433036404 123.14500326874037" class="trace-invisible-hover-outline sch-trace-hitbox" stroke="rgb(0, 150, 0)" fill="none" stroke-width="10.571142708544px" stroke-linecap="round" opacity="0" stroke-linejoin="round"/><path class="sch-trace-path" d="M 1042.30542021102 96.65107685545198 L 1044.287509468872 96.65107685545198 L 1050.9605433036404 96.65107685545198 L 1050.9605433036404 123.14500326874037" stroke="rgb(0, 150, 0)" fill="none" stroke-width="1.321392838568px" stroke-linecap="round" stroke-linejoin="round"/></g><g class="trace sch-trace" data-layer="base" data-circuit-json-type="schematic_trace" data-schematic-trace-id="schematic_trace_3" data-subcircuit-connectivity-map-key="unnamedsubcircuitsubcircuit_source_group_0_connectivity_net7"><path d="M 249.549615088204 491.0687790313788 L 256.2226489229724 491.0687790313788 L 256.2226489229724 530.7766338303472" class="trace-invisible-hover-outline sch-trace-hitbox" stroke="rgb(0, 150, 0)" fill="none" stroke-width="10.571142708544px" stroke-linecap="round" opacity="0" stroke-linejoin="round"/><path class="sch-trace-path" d="M 249.549615088204 491.0687790313788 L 256.2226489229724 491.0687790313788 L 256.2226489229724 530.7766338303472" stroke="rgb(0, 150, 0)" fill="none" stroke-width="1.321392838568px" stroke-linecap="round" stroke-linejoin="round"/></g><g class="trace sch-trace" data-layer="base" data-circuit-json-type="schematic_trace" data-schematic-trace-id="schematic_trace_4" data-subcircuit-connectivity-map-key="unnamedsubcircuitsubcircuit_source_group_0_connectivity_net6"><path d="M 176.71321293099595 491.1048993046212 L 170.04017909622758 491.1048993046212 L 170.04017909622758 451.39704450565273" class="trace-invisible-hover-outline sch-trace-hitbox" stroke="rgb(0, 150, 0)" fill="none" stroke-width="10.571142708544px" stroke-linecap="round" opacity="0" stroke-linejoin="round"/><path class="sch-trace-path" d="M 176.71321293099595 491.1048993046212 L 170.04017909622758 491.1048993046212 L 170.04017909622758 451.39704450565273" stroke="rgb(0, 150, 0)" fill="none" stroke-width="1.321392838568px" stroke-linecap="round" stroke-linejoin="round"/></g><g class="trace sch-trace" data-layer="base" data-circuit-json-type="schematic_trace" data-schematic-trace-id="schematic_trace_5" data-subcircuit-connectivity-map-key="unnamedsubcircuitsubcircuit_source_group_0_connectivity_net8"><path d="M 573.21096251938 491.086839168 L 566.5379286846116 491.086839168 L 566.5379286846116 464.5929127547116" class="trace-invisible-hover-outline sch-trace-hitbox" stroke="rgb(0, 150, 0)" fill="none" stroke-width="10.571142708544px" stroke-linecap="round" opacity="0" stroke-linejoin="round"/><path class="sch-trace-path" d="M 573.21096251938 491.086839168 L 566.5379286846116 491.086839168 L 566.5379286846116 464.5929127547116" stroke="rgb(0, 150, 0)" fill="none" stroke-width="1.321392838568px" stroke-linecap="round" stroke-linejoin="round"/></g><g class="trace sch-trace" data-layer="base" data-circuit-json-type="schematic_trace" data-schematic-trace-id="schematic_trace_6" data-subcircuit-connectivity-map-key="unnamedsubcircuitsubcircuit_source_group_0_connectivity_net11"><path d="M 970.289510509064 491.086839168 L 968.6377694608541 491.086839168 L 961.9647356260857 491.086839168 L 961.9647356260857 514.2772834848683" class="trace-invisible-hover-outline sch-trace-hitbox" stroke="rgb(0, 150, 0)" fill="none" stroke-width="10.571142708544px" stroke-linecap="round" opacity="0" stroke-linejoin="round"/><path class="sch-trace-path" d="M 970.289510509064 491.086839168 L 968.6377694608541 491.086839168 L 961.9647356260857 491.086839168 L 961.9647356260857 514.2772834848683" stroke="rgb(0, 150, 0)" fill="none" stroke-width="1.321392838568px" stroke-linecap="round" stroke-linejoin="round"/></g><g class="trace-overlays sch-trace-overlays" data-layer="overlay" data-circuit-json-type="schematic_trace" data-schematic-trace-id="schematic_trace_0" data-subcircuit-connectivity-map-key="unnamedsubcircuitsubcircuit_source_group_0_connectivity_net1"/><g class="trace-overlays sch-trace-overlays" data-layer="overlay" data-circuit-json-type="schematic_trace" data-schematic-trace-id="schematic_trace_1" data-subcircuit-connectivity-map-key="unnamedsubcircuitsubcircuit_source_group_0_connectivity_net2"/><g class="trace-overlays sch-trace-overlays" data-layer="overlay" data-circuit-json-type="schematic_trace" data-schematic-trace-id="schematic_trace_2" data-subcircuit-connectivity-map-key="unnamedsubcircuitsubcircuit_source_group_0_connectivity_net5"/><g class="trace-overlays sch-trace-overlays" data-layer="overlay" data-circuit-json-type="schematic_trace" data-schematic-trace-id="schematic_trace_3" data-subcircuit-connectivity-map-key="unnamedsubcircuitsubcircuit_source_group_0_connectivity_net7"/><g class="trace-overlays sch-trace-overlays" data-layer="overlay" data-circuit-json-type="schematic_trace" data-schematic-trace-id="schematic_trace_4" data-subcircuit-connectivity-map-key="unnamedsubcircuitsubcircuit_source_group_0_connectivity_net6"/><g class="trace-overlays sch-trace-overlays" data-layer="overlay" data-circuit-json-type="schematic_trace" data-schematic-trace-id="schematic_trace_5" data-subcircuit-connectivity-map-key="unnamedsubcircuitsubcircuit_source_group_0_connectivity_net8"/><g class="trace-overlays sch-trace-overlays" data-layer="overlay" data-circuit-json-type="schematic_trace" data-schematic-trace-id="schematic_trace_6" data-subcircuit-connectivity-map-key="unnamedsubcircuitsubcircuit_source_group_0_connectivity_net11"/><g class="sch-component" data-circuit-json-type="schematic_component" data-schematic-component-id="schematic_component_0"><rect class="component-overlay sch-component-overlay" x="176.79311094898003" y="77.49088069621598" width="72.67660612123996" height="35.01691022205199" fill="transparent"/><path class="sch-component-symbol-path" d="M 249.46971707021999 94.66898759759998 L 217.756288944588 94.66898759759998" stroke="rgb(132, 0, 0)" fill="none" stroke-width="1.321392838568px" stroke-linecap="round"/><path class="sch-component-symbol-path" d="M 207.185146236044 94.66898759759998 L 176.79311094898003 94.66898759759998" stroke="rgb(132, 0, 0)" fill="none" stroke-width="1.321392838568px" stroke-linecap="round"/><path class="sch-component-symbol-path" d="M 217.756288944588 77.49088069621598 L 217.756288944588 112.50779091826797" stroke="rgb(132, 0, 0)" fill="none" stroke-width="1.321392838568px" stroke-linecap="round"/><path class="sch-component-symbol-path" d="M 207.185146236044 77.49088069621598 L 207.185146236044 112.50779091826797" stroke="rgb(132, 0, 0)" fill="none" stroke-width="1.321392838568px" stroke-linecap="round"/><text class="sch-component-name sch-component-text" x="212.470717590316" y="68.24113082624" stroke="rgb(245, 241, 237)" stroke-width="1.321392838568px" paint-order="stroke" fill="rgb(15, 15, 15)" font-family="sans-serif" text-anchor="middle" dominant-baseline="ideographic" font-size="11.892535547112px">C1</text><text class="sch-component-text" x="213.1314140096" y="123.73963004609597" fill="rgb(15, 15, 15)" font-family="sans-serif" text-anchor="middle" dominant-baseline="hanging" font-size="11.892535547112px">100nF</text></g><g class="sch-component" data-circuit-json-type="schematic_component" data-schematic-component-id="schematic_component_1"><rect class="component-overlay sch-component-overlay" x="575.193051777232" y="86.07993414690797" width="68.71242760553605" height="17.838803320667992" fill="transparent"/><path class="sch-component-symbol-path" d="M 600.299515710024 94.66898759759997 L 617.477622611408 86.07993414690797" stroke="rgb(132, 0, 0)" fill="none" stroke-width="1.321392838568px" stroke-linecap="round"/><path class="sch-component-symbol-path" d="M 617.477622611408 103.91873746757597 L 600.299515710024 94.66898759759997" stroke="rgb(132, 0, 0)" fill="none" stroke-width="1.321392838568px" stroke-linecap="round"/><path class="sch-component-symbol-path" d="M 617.477622611408 86.07993414690797 L 617.477622611408 103.91873746757597" stroke="rgb(132, 0, 0)" fill="none" stroke-width="1.321392838568px" stroke-linecap="round"/><path class="sch-component-symbol-path" d="M 600.299515710024 103.91873746757597 L 600.299515710024 86.07993414690797" stroke="rgb(132, 0, 0)" fill="none" stroke-width="1.321392838568px" stroke-linecap="round"/><path class="sch-component-symbol-path" d="M 617.477622611408 94.66898759759997 L 643.905479382768 94.66898759759997" stroke="rgb(132, 0, 0)" fill="none" stroke-width="1.321392838568px" stroke-linecap="round"/><path class="sch-component-symbol-path" d="M 575.193051777232 94.66898759759998 L 599.63881929074 94.66898759759997" stroke="rgb(132, 0, 0)" fill="none" stroke-width="1.321392838568px" stroke-linecap="round"/><text class="sch-component-name sch-component-text" x="610.209961999284" y="109.86500524113197" stroke="rgb(245, 241, 237)" stroke-width="1.321392838568px" paint-order="stroke" fill="rgb(15, 15, 15)" font-family="sans-serif" text-anchor="middle" dominant-baseline="hanging" font-size="11.892535547112px">D1</text><text class="sch-component-text" x="609.54926558" y="74.18739859979597" fill="rgb(15, 15, 15)" font-family="sans-serif" text-anchor="middle" dominant-baseline="ideographic" font-size="11.892535547112px"></text></g><g class="sch-component" data-circuit-json-type="schematic_component" data-schematic-component-id="schematic_component_2"><rect class="component-overlay sch-component-overlay" x="969.62881408978" y="89.383416243328" width="72.67660612123996" height="7.26766061212399" fill="transparent"/><path class="sch-component-symbol-path" d="M 992.75318876472 95.990380436168 L 992.75318876472 95.990380436168 L 992.092492345436 95.32968401688399 L 992.092492345436 95.32968401688399 L 992.092492345436 94.6689875976 L 992.092492345436 94.6689875976 L 992.092492345436 94.6689875976 L 991.431795926152 94.008291178316 L 991.431795926152 94.008291178316 L 991.431795926152 93.34759475903199 L 991.431795926152 93.34759475903199 L 990.771099506868 92.686898339748 L 990.771099506868 92.686898339748 L 990.771099506868 92.686898339748 L 990.771099506868 92.02620192046399 L 990.110403087584 92.02620192046399 L 990.110403087584 92.02620192046399 L 990.110403087584 91.36550550118 L 990.110403087584 91.36550550118 L 989.4497066683 91.36550550118 L 989.4497066683 90.704809081896 L 989.4497066683 90.704809081896 L 989.4497066683 90.704809081896 L 988.789010249016 90.704809081896 L 988.789010249016 90.704809081896 L 988.789010249016 90.044112662612 L 988.789010249016 90.044112662612 L 988.128313829732 90.044112662612 L 988.128313829732 90.044112662612 L 988.128313829732 90.044112662612 L 988.128313829732 90.044112662612 L 987.467617410448 90.044112662612 L 987.467617410448 90.044112662612 L 987.467617410448 90.044112662612 L 987.467617410448 90.044112662612 L 986.806920991164 90.044112662612 L 986.806920991164 89.383416243328 L 986.806920991164 89.383416243328 L 986.806920991164 89.383416243328 L 986.14622457188 89.383416243328 L 986.14622457188 89.383416243328 L 986.14622457188 89.383416243328 L 986.14622457188 89.383416243328 L 985.485528152596 89.383416243328 L 985.485528152596 89.383416243328 L 985.485528152596 90.044112662612 L 985.485528152596 90.044112662612 L 984.824831733312 90.044112662612 L 984.824831733312 90.044112662612 L 984.824831733312 90.044112662612 L 984.824831733312 90.044112662612 L 984.164135314028 90.044112662612 L 984.164135314028 90.044112662612 L 984.164135314028 90.044112662612 L 984.164135314028 90.044112662612 L 983.503438894744 90.044112662612 L 983.503438894744 90.704809081896 L 983.503438894744 90.704809081896 L 983.503438894744 90.704809081896 L 982.84274247546 90.704809081896 L 982.84274247546 90.704809081896 L 982.84274247546 91.36550550118 L 982.84274247546 91.36550550118 L 982.182046056176 91.36550550118 L 982.182046056176 92.02620192046399 L 982.182046056176 92.02620192046399 L 982.182046056176 92.02620192046399 L 981.521349636892 92.686898339748 L 981.521349636892 92.686898339748 L 981.521349636892 92.686898339748 L 981.521349636892 93.34759475903199 L 980.860653217608 93.34759475903199 L 980.860653217608 94.008291178316 L 980.860653217608 94.008291178316 L 980.860653217608 94.6689875976 L 980.199956798324 94.6689875976 L 980.199956798324 94.6689875976 L 980.199956798324 95.32968401688399 L 980.199956798324 95.32968401688399 L 979.53926037904 95.990380436168 L 979.53926037904 95.990380436168" stroke="rgb(132, 0, 0)" fill="none" stroke-width="1.321392838568px" stroke-linecap="round"/><path class="sch-component-symbol-path" d="M 1005.9671171504 95.990380436168 L 1005.9671171504 95.990380436168 L 1005.306420731116 95.32968401688399 L 1005.306420731116 95.32968401688399 L 1005.306420731116 94.6689875976 L 1005.306420731116 94.6689875976 L 1004.6457243118319 94.6689875976 L 1004.6457243118319 94.008291178316 L 1004.6457243118319 94.008291178316 L 1004.6457243118319 93.34759475903199 L 1003.985027892548 93.34759475903199 L 1003.985027892548 92.686898339748 L 1003.985027892548 92.686898339748 L 1003.985027892548 92.686898339748 L 1003.324331473264 92.02620192046399 L 1003.324331473264 92.02620192046399 L 1003.324331473264 92.02620192046399 L 1003.324331473264 91.36550550118 L 1002.66363505398 91.36550550118 L 1002.66363505398 91.36550550118 L 1002.66363505398 90.704809081896 L 1002.66363505398 90.704809081896 L 1002.002938634696 90.704809081896 L 1002.002938634696 90.704809081896 L 1002.002938634696 90.704809081896 L 1002.002938634696 90.044112662612 L 1001.3422422154119 90.044112662612 L 1001.3422422154119 90.044112662612 L 1001.3422422154119 90.044112662612 L 1001.3422422154119 90.044112662612 L 1000.681545796128 90.044112662612 L 1000.681545796128 90.044112662612 L 1000.681545796128 90.044112662612 L 1000.681545796128 90.044112662612 L 1000.020849376844 90.044112662612 L 1000.020849376844 90.044112662612 L 1000.020849376844 89.383416243328 L 1000.020849376844 89.383416243328 L 999.36015295756 89.383416243328 L 999.36015295756 89.383416243328 L 999.36015295756 89.383416243328 L 999.36015295756 89.383416243328 L 998.699456538276 89.383416243328 L 998.699456538276 89.383416243328 L 998.699456538276 89.383416243328 L 998.699456538276 90.044112662612 L 998.038760118992 90.044112662612 L 998.038760118992 90.044112662612 L 998.038760118992 90.044112662612 L 998.038760118992 90.044112662612 L 997.378063699708 90.044112662612 L 997.378063699708 90.044112662612 L 997.378063699708 90.044112662612 L 997.378063699708 90.044112662612 L 996.717367280424 90.044112662612 L 996.717367280424 90.044112662612 L 996.717367280424 90.704809081896 L 996.717367280424 90.704809081896 L 996.05667086114 90.704809081896 L 996.05667086114 90.704809081896 L 996.05667086114 90.704809081896 L 996.05667086114 91.36550550118 L 995.395974441856 91.36550550118 L 995.395974441856 91.36550550118 L 995.395974441856 92.02620192046399 L 995.395974441856 92.02620192046399 L 994.735278022572 92.02620192046399 L 994.735278022572 92.686898339748 L 994.735278022572 92.686898339748 L 994.735278022572 92.686898339748 L 994.074581603288 93.34759475903199 L 994.074581603288 93.34759475903199 L 994.074581603288 94.008291178316 L 994.074581603288 94.008291178316 L 993.413885184004 94.6689875976 L 993.413885184004 94.6689875976 L 993.413885184004 94.6689875976 L 993.413885184004 95.32968401688399 L 992.75318876472 95.32968401688399 L 992.75318876472 95.990380436168 L 992.75318876472 95.990380436168" stroke="rgb(132, 0, 0)" fill="none" stroke-width="1.321392838568px" stroke-linecap="round"/><path class="sch-component-symbol-path" d="M 1019.18104553608 95.990380436168 L 1019.18104553608 95.990380436168 L 1018.520349116796 95.32968401688399 L 1018.520349116796 95.32968401688399 L 1018.520349116796 94.6689875976 L 1018.520349116796 94.6689875976 L 1017.8596526975119 94.6689875976 L 1017.8596526975119 94.008291178316 L 1017.8596526975119 94.008291178316 L 1017.8596526975119 93.34759475903199 L 1017.198956278228 93.34759475903199 L 1017.198956278228 92.686898339748 L 1017.198956278228 92.686898339748 L 1017.198956278228 92.686898339748 L 1016.538259858944 92.02620192046399 L 1016.538259858944 92.02620192046399 L 1016.538259858944 92.02620192046399 L 1016.538259858944 91.36550550118 L 1015.87756343966 91.36550550118 L 1015.87756343966 91.36550550118 L 1015.87756343966 90.704809081896 L 1015.87756343966 90.704809081896 L 1015.216867020376 90.704809081896 L 1015.216867020376 90.704809081896 L 1015.216867020376 90.704809081896 L 1015.216867020376 90.044112662612 L 1014.5561706010919 90.044112662612 L 1014.5561706010919 90.044112662612 L 1014.5561706010919 90.044112662612 L 1014.5561706010919 90.044112662612 L 1013.895474181808 90.044112662612 L 1013.895474181808 90.044112662612 L 1013.895474181808 90.044112662612 L 1013.895474181808 90.044112662612 L 1013.234777762524 90.044112662612 L 1013.234777762524 90.044112662612 L 1013.234777762524 89.383416243328 L 1013.234777762524 89.383416243328 L 1012.57408134324 89.383416243328 L 1012.57408134324 89.383416243328 L 1012.57408134324 89.383416243328 L 1012.57408134324 89.383416243328 L 1011.913384923956 89.383416243328 L 1011.913384923956 89.383416243328 L 1011.913384923956 89.383416243328 L 1011.913384923956 90.044112662612 L 1011.2526885046719 90.044112662612 L 1011.2526885046719 90.044112662612 L 1011.2526885046719 90.044112662612 L 1011.2526885046719 90.044112662612 L 1010.591992085388 90.044112662612 L 1010.591992085388 90.044112662612 L 1010.591992085388 90.044112662612 L 1010.591992085388 90.044112662612 L 1009.931295666104 90.044112662612 L 1009.931295666104 90.044112662612 L 1009.931295666104 90.704809081896 L 1009.931295666104 90.704809081896 L 1009.27059924682 90.704809081896 L 1009.27059924682 90.704809081896 L 1009.27059924682 90.704809081896 L 1009.27059924682 91.36550550118 L 1008.609902827536 91.36550550118 L 1008.609902827536 91.36550550118 L 1008.609902827536 92.02620192046399 L 1008.609902827536 92.02620192046399 L 1007.9492064082519 92.02620192046399 L 1007.9492064082519 92.686898339748 L 1007.9492064082519 92.686898339748 L 1007.9492064082519 92.686898339748 L 1007.288509988968 93.34759475903199 L 1007.288509988968 93.34759475903199 L 1007.288509988968 94.008291178316 L 1007.288509988968 94.008291178316 L 1006.627813569684 94.6689875976 L 1006.627813569684 94.6689875976 L 1006.627813569684 94.6689875976 L 1006.627813569684 95.32968401688399 L 1005.9671171504 95.32968401688399 L 1005.9671171504 95.990380436168 L 1005.9671171504 95.990380436168" stroke="rgb(132, 0, 0)" fill="none" stroke-width="1.321392838568px" stroke-linecap="round"/><path class="sch-component-symbol-path" d="M 1032.39497392176 95.990380436168 L 1031.734277502476 95.990380436168 L 1031.734277502476 95.32968401688399 L 1031.734277502476 95.32968401688399 L 1031.734277502476 94.6689875976 L 1031.734277502476 94.6689875976 L 1031.073581083192 94.6689875976 L 1031.073581083192 94.008291178316 L 1031.073581083192 94.008291178316 L 1031.073581083192 93.34759475903199 L 1030.412884663908 93.34759475903199 L 1030.412884663908 92.686898339748 L 1030.412884663908 92.686898339748 L 1030.412884663908 92.686898339748 L 1029.752188244624 92.02620192046399 L 1029.752188244624 92.02620192046399 L 1029.752188244624 92.02620192046399 L 1029.752188244624 91.36550550118 L 1029.09149182534 91.36550550118 L 1029.09149182534 91.36550550118 L 1029.09149182534 90.704809081896 L 1029.09149182534 90.704809081896 L 1028.430795406056 90.704809081896 L 1028.430795406056 90.704809081896 L 1028.430795406056 90.704809081896 L 1028.430795406056 90.044112662612 L 1027.770098986772 90.044112662612 L 1027.770098986772 90.044112662612 L 1027.770098986772 90.044112662612 L 1027.770098986772 90.044112662612 L 1027.109402567488 90.044112662612 L 1027.109402567488 90.044112662612 L 1027.109402567488 90.044112662612 L 1027.109402567488 90.044112662612 L 1026.4487061482039 90.044112662612 L 1026.4487061482039 90.044112662612 L 1026.4487061482039 89.383416243328 L 1026.4487061482039 89.383416243328 L 1025.78800972892 89.383416243328 L 1025.78800972892 89.383416243328 L 1025.78800972892 89.383416243328 L 1025.78800972892 89.383416243328 L 1025.127313309636 89.383416243328 L 1025.127313309636 89.383416243328 L 1025.127313309636 89.383416243328 L 1025.127313309636 90.044112662612 L 1024.466616890352 90.044112662612 L 1024.466616890352 90.044112662612 L 1024.466616890352 90.044112662612 L 1024.466616890352 90.044112662612 L 1023.805920471068 90.044112662612 L 1023.805920471068 90.044112662612 L 1023.805920471068 90.044112662612 L 1023.805920471068 90.044112662612 L 1023.145224051784 90.044112662612 L 1023.145224051784 90.044112662612 L 1023.145224051784 90.704809081896 L 1023.145224051784 90.704809081896 L 1022.4845276325 90.704809081896 L 1022.4845276325 90.704809081896 L 1022.4845276325 90.704809081896 L 1022.4845276325 91.36550550118 L 1021.823831213216 91.36550550118 L 1021.823831213216 91.36550550118 L 1021.823831213216 92.02620192046399 L 1021.823831213216 92.02620192046399 L 1021.1631347939319 92.02620192046399 L 1021.1631347939319 92.686898339748 L 1021.1631347939319 92.686898339748 L 1021.1631347939319 92.686898339748 L 1020.502438374648 93.34759475903199 L 1020.502438374648 93.34759475903199 L 1020.502438374648 94.008291178316 L 1020.502438374648 94.008291178316 L 1019.841741955364 94.6689875976 L 1019.841741955364 94.6689875976 L 1019.841741955364 94.6689875976 L 1019.841741955364 95.32968401688399 L 1019.18104553608 95.32968401688399 L 1019.18104553608 95.990380436168 L 1019.18104553608 95.990380436168" stroke="rgb(132, 0, 0)" fill="none" stroke-width="1.321392838568px" stroke-linecap="round"/><path class="sch-component-symbol-path" d="M 979.53926037904 95.990380436168 L 969.62881408978 95.990380436168" stroke="rgb(132, 0, 0)" fill="none" stroke-width="1.321392838568px" stroke-linecap="round"/><path class="sch-component-symbol-path" d="M 1042.30542021102 96.65107685545199 L 1032.39497392176 96.65107685545199" stroke="rgb(132, 0, 0)" fill="none" stroke-width="1.321392838568px" stroke-linecap="round"/><text class="sch-component-name sch-component-text" x="1005.9671171504" y="79.47296995406799" stroke="rgb(245, 241, 237)" stroke-width="1.321392838568px" paint-order="stroke" fill="rgb(15, 15, 15)" font-family="sans-serif" text-anchor="middle" dominant-baseline="ideographic" font-size="11.892535547112px">L1</text><text class="sch-component-text" x="1005.9671171504" y="109.865005241132" fill="rgb(15, 15, 15)" font-family="sans-serif" text-anchor="middle" dominant-baseline="hanging" font-size="11.892535547112px">10µH</text></g><g class="sch-component" data-circuit-json-type="schematic_component" data-schematic-component-id="schematic_component_3"><rect class="component-overlay sch-component-overlay" x="178.5811008127747" y="473.635669740008" width="69.92370217190194" height="37.38382871628011" fill="transparent"/><path class="sch-component-symbol-path" d="M 178.5811008127747 491.128426704112 L 213.0433365699452 491.128426704112" stroke="rgb(132, 0, 0)" fill="none" stroke-width="1.321392838568px" stroke-linecap="round"/><path class="sch-component-symbol-path" d="M 218.78722642331033 491.128426704112 L 248.50480298467664 491.128426704112" stroke="rgb(132, 0, 0)" fill="none" stroke-width="1.321392838568px" stroke-linecap="round"/><path class="sch-component-symbol-path" d="M 213.29526011461823 508.76372231371215 L 213.2952601146182 473.635669740008" stroke="rgb(132, 0, 0)" fill="none" stroke-width="1.321392838568px" stroke-linecap="round"/><path class="sch-component-symbol-path" d="M 222.60336269234537 473.86507675071186 L 222.60336269234537 473.86507675071186 L 222.4425198374696 474.13732246690125 L 222.2843822451926 474.41024721016504 L 222.12897310302228 474.68385327825854 L 221.97631559846644 474.95814296893707 L 221.82643291903307 475.23311857995594 L 221.67934825222997 475.5087824090705 L 221.5350847855651 475.7851367540361 L 221.3936657065463 476.06218391260796 L 221.25511420268148 476.33992618254155 L 221.11945346147854 476.6183658615921 L 220.98670667044533 476.89750524751497 L 220.85689701708978 477.17734663806544 L 220.73004768891974 477.4578923309989 L 220.60618187344315 477.7391446240706 L 220.48532275816783 478.0211058150359 L 220.36749353060173 478.30377820165023 L 220.2527173782527 478.58716408166873 L 220.14101748862865 478.87126575284685 L 220.03241704923744 479.15608551293985 L 219.926939247587 479.4416256597031 L 219.8246072711852 479.72788849089187 L 219.72544430753987 480.0148763042616 L 219.629473544159 480.3025913975674 L 219.53671816855044 480.59103606856485 L 219.44720136822204 480.8802126150091 L 219.36094633068174 481.17012333465556 L 219.2779762434374 481.4607705252595 L 219.1983142939969 481.7521564845763 L 219.12198366986817 482.0442835103612 L 219.04900755855905 482.33715390036963 L 219.04900755855905 482.33715390036963 L 219.04900755855905 482.33715390036963 L 218.96149910503243 482.70656071630265 L 218.8783695374182 483.0767621929291 L 218.79958644782286 483.44773267026835 L 218.72511742835295 483.8194464883396 L 218.654930071115 484.1918779871623 L 218.5889919682155 484.56500150675555 L 218.52727071176105 484.93879138713874 L 218.46973389385812 485.3132219683311 L 218.41634910661324 485.688267590352 L 218.36708394213298 486.0639025932207 L 218.3219059925238 486.44010131695643 L 218.2807828498923 486.8168381015785 L 218.24368210634495 487.1940872871063 L 218.2105713539883 487.571823213559 L 218.18141818492887 487.950020220956 L 218.15619019127323 488.32865264931644 L 218.13485496512783 488.70769483865973 L 218.11738009859926 489.0871211290051 L 218.103733183794 489.46690586037187 L 218.0938818128186 489.84702337277935 L 218.08779357777962 490.22744800624673 L 218.08543607078352 490.6081541007934 L 218.0867768839369 490.98911599643867 L 218.0917836093462 491.3703080332017 L 218.100423839118 491.7517045511019 L 218.11266516535886 492.1332798901585 L 218.12847518017526 492.5150083903908 L 218.1478214756737 492.8968643918181 L 218.1706716439608 493.2788222344597 L 218.19699327714298 493.6608562583349 L 218.19699327714298 493.6608562583349 L 218.19699327714298 493.6608562583349 L 218.22654863266783 493.9847897630162 L 218.25765149630556 494.30899536597445 L 218.29037615529333 494.63342732646237 L 218.32479689686835 494.9580399037327 L 218.36098800826778 495.28278735703833 L 218.39902377672877 495.607623945632 L 218.43897848948848 495.93250392876644 L 218.4809264337841 496.2573815656945 L 218.52494189685282 496.58221111566894 L 218.5710991659318 496.9069468379426 L 218.61947252825817 497.2315429917682 L 218.67013627106914 497.55595383639854 L 218.72316468160187 497.88013363108644 L 218.77863204709354 498.2040366350846 L 218.8366126547813 498.5276171076459 L 218.89718079190234 498.8508293080231 L 218.96041074569382 499.17362749546896 L 219.0263768033929 499.4959659292363 L 219.09515325223677 499.8177988685779 L 219.16681437946258 500.1390805727465 L 219.2414344723075 500.4597653009949 L 219.31908781800874 500.77980731257594 L 219.3998487038034 501.0991608667424 L 219.48379141692874 501.417780222747 L 219.57099024462184 501.7356196398426 L 219.66151947411993 502.0526333772819 L 219.75545339266014 502.3687756943177 L 219.85286628747969 502.6840008502029 L 219.9538324458157 502.9982631041902 L 220.05842615490536 503.3115167155324 L 220.05842615490536 503.3115167155324 L 220.05842615490536 503.3115167155324 L 220.12153830676996 503.49459400633776 L 220.18614834550996 503.6773426315071 L 220.25225605089318 503.8597503549426 L 220.31986120268752 504.0418049405467 L 220.38896358066077 504.2234941522216 L 220.45956296458087 504.40480575386965 L 220.53165913421563 504.5857275093932 L 220.6052518693329 504.7662471826946 L 220.6803409497006 504.94635253767603 L 220.75692615508655 505.12603133823995 L 220.83500726525858 505.30527134828856 L 220.9145840599846 505.48406033172427 L 220.9956563190325 505.66238605244934 L 221.07822382217003 505.8402362743661 L 221.16228634916516 506.0175987613768 L 221.2478436797857 506.1944612773839 L 221.3348955937995 506.37081158628956 L 221.42344187097444 506.5466374519962 L 221.5134822910784 506.7219266384061 L 221.6050166338792 506.8966669094216 L 221.6980446791447 507.0708460289449 L 221.7925662066428 507.24445176087846 L 221.88858099614131 507.41747186912454 L 221.98608882740814 507.58989411758546 L 222.08508948021114 507.76170627016353 L 222.18558273431813 507.932896090761 L 222.28756836949702 508.1034513432803 L 222.39104616551566 508.2733597916237 L 222.4960159021419 508.4426091996935 L 222.60247735914356 508.611187331392 L 222.60247735914356 508.611187331392" stroke="rgb(132, 0, 0)" fill="none" stroke-width="1.321392838568px" stroke-linecap="round"/><path class="sch-component-symbol-path" d="M 195.72524791820754 506.0969269286991 L 205.0058655248925 506.0969269286991 L 205.0058655248925 506.5413774099515 L 195.72524791820754 506.5413774099515" stroke="rgb(132, 0, 0)" fill="none" stroke-width="1.321392838568px" stroke-linecap="round"/><path class="sch-component-symbol-path" d="M 200.0816488632195 511.0194984562881 L 200.0816488632195 501.73888084960316 L 200.52609934447185 501.73888084960316 L 200.52609934447185 511.0194984562881" stroke="rgb(132, 0, 0)" fill="none" stroke-width="1.321392838568px" stroke-linecap="round"/><text class="sch-component-name sch-component-text" x="213.9813669181879" y="466.20204218736" stroke="rgb(245, 241, 237)" stroke-width="1.321392838568px" paint-order="stroke" fill="rgb(15, 15, 15)" font-family="sans-serif" text-anchor="middle" dominant-baseline="ideographic" font-size="11.892535547112px">C2</text><text class="sch-component-text" x="213.38581516584532" y="513.7710413710024" fill="rgb(15, 15, 15)" font-family="sans-serif" text-anchor="middle" dominant-baseline="hanging" font-size="11.892535547112px">1uF</text></g><g class="sch-component" data-circuit-json-type="schematic_component" data-schematic-component-id="schematic_component_4"><rect class="component-overlay sch-component-overlay" x="573.2109625193799" y="482.497785717308" width="72.67660612124007" height="17.838803320667978" fill="transparent"/><path class="sch-component-symbol-path" d="M 573.2109625193799 491.086839168 L 591.710462259332 491.086839168" stroke="rgb(132, 0, 0)" fill="none" stroke-width="1.321392838568px" stroke-linecap="round"/><path class="sch-component-symbol-path" d="M 626.727372481384 491.086839168 L 645.88756864062 491.086839168" stroke="rgb(132, 0, 0)" fill="none" stroke-width="1.321392838568px" stroke-linecap="round"/><path class="sch-component-symbol-path" d="M 609.54926558 482.497785717308 L 626.727372481384 482.497785717308 L 626.727372481384 500.33658903797595 L 591.710462259332 500.33658903797595 L 591.710462259332 482.497785717308 L 609.54926558 482.497785717308" stroke="rgb(132, 0, 0)" fill="none" stroke-width="1.321392838568px" stroke-linecap="round"/><text class="sch-component-name sch-component-text" x="608.227872741432" y="479.23028845136434" stroke="rgb(245, 241, 237)" stroke-width="1.321392838568px" paint-order="stroke" fill="rgb(15, 15, 15)" font-family="sans-serif" text-anchor="middle" dominant-baseline="ideographic" font-size="11.892535547112px">R0</text><text class="sch-component-text" x="608.227872741432" y="504.92547914248763" fill="rgb(15, 15, 15)" font-family="sans-serif" text-anchor="middle" dominant-baseline="hanging" font-size="11.892535547112px">0Ω</text></g><g class="sch-component" data-circuit-json-type="schematic_component" data-schematic-component-id="schematic_component_5"><rect class="component-overlay sch-component-overlay" x="970.289510509064" y="469.944553750912" width="71.35521328267191" height="30.392035287064004" fill="transparent"/><path class="sch-component-symbol-path" d="M 996.717367280424 491.086839168 L 1014.5561706010919 500.336589037976" stroke="rgb(132, 0, 0)" fill="none" stroke-width="1.321392838568px" stroke-linecap="round"/><path class="sch-component-symbol-path" d="M 997.378063699708 491.086839168 L 970.289510509064 491.086839168" stroke="rgb(132, 0, 0)" fill="none" stroke-width="1.321392838568px" stroke-linecap="round"/><path class="sch-component-symbol-path" d="M 1014.5561706010919 482.497785717308 L 996.717367280424 491.086839168" stroke="rgb(132, 0, 0)" fill="none" stroke-width="1.321392838568px" stroke-linecap="round"/><path class="sch-component-symbol-path" d="M 1014.5561706010919 500.336589037976 L 1014.5561706010919 482.497785717308" stroke="rgb(132, 0, 0)" fill="none" stroke-width="1.321392838568px" stroke-linecap="round"/><path class="sch-component-symbol-path" d="M 996.717367280424 482.497785717308 L 996.717367280424 500.336589037976" stroke="rgb(132, 0, 0)" fill="none" stroke-width="1.321392838568px" stroke-linecap="round"/><path class="sch-component-symbol-path" d="M 1014.5561706010919 491.086839168 L 1041.644723791736 491.086839168" stroke="rgb(132, 0, 0)" fill="none" stroke-width="1.321392838568px" stroke-linecap="round"/><path class="sch-component-symbol-path" d="M 995.395974441856 471.92664300876396 L 989.4497066683 471.26594658948 L 991.431795926152 477.21221436303597" stroke="rgb(132, 0, 0)" fill="none" stroke-width="1.321392838568px" stroke-linecap="round"/><path class="sch-component-symbol-path" d="M 1000.681545796128 479.855000040172 L 1000.020849376844 479.855000040172 L 992.092492345436 473.248035847332 L 992.092492345436 473.248035847332" stroke="rgb(132, 0, 0)" fill="none" stroke-width="1.321392838568px" stroke-linecap="round"/><path class="sch-component-symbol-path" d="M 1007.288509988968 470.605250170196 L 1000.681545796128 469.944553750912 L 1003.324331473264 475.890821524468" stroke="rgb(132, 0, 0)" fill="none" stroke-width="1.321392838568px" stroke-linecap="round"/><path class="sch-component-symbol-path" d="M 1012.57408134324 478.53360720160396 L 1011.913384923956 477.87291078232 L 1003.324331473264 471.92664300876396 L 1003.324331473264 471.92664300876396" stroke="rgb(132, 0, 0)" fill="none" stroke-width="1.321392838568px" stroke-linecap="round"/><text class="sch-component-text" x="1005.9671171504" y="504.961463972964" fill="rgb(15, 15, 15)" font-family="sans-serif" text-anchor="middle" dominant-baseline="hanging" font-size="11.892535547112px"></text><text class="sch-component-name sch-component-text" x="1005.9671171504" y="463.998285977356" stroke="rgb(245, 241, 237)" stroke-width="1.321392838568px" paint-order="stroke" fill="rgb(15, 15, 15)" font-family="sans-serif" text-anchor="middle" dominant-baseline="ideographic" font-size="11.892535547112px">LED1</text></g><g class="schematic-port-hover sch-port-hover" data-schematic-port-id="source_port_0"><circle cx="176.79311094897997" cy="94.6689875976" r="2.642785677136" fill="red" opacity="0"/></g><g class="schematic-port-hover sch-port-hover" data-schematic-port-id="source_port_1"><circle cx="249.46971707021999" cy="94.6689875976" r="2.642785677136" fill="red" opacity="0"/></g><g class="schematic-port-hover sch-port-hover" data-schematic-port-id="source_port_2"><circle cx="643.905479382768" cy="94.6689875976" r="2.642785677136" fill="red" opacity="0"/></g><g class="schematic-port-hover sch-port-hover" data-schematic-port-id="source_port_3"><circle cx="575.193051777232" cy="94.6689875976" r="2.642785677136" fill="red" opacity="0"/></g><g class="schematic-port-hover sch-port-hover" data-schematic-port-id="source_port_4"><circle cx="969.62881408978" cy="95.99038043616798" r="2.642785677136" fill="red" opacity="0"/></g><g class="schematic-port-hover sch-port-hover" data-schematic-port-id="source_port_5"><circle cx="1042.30542021102" cy="96.65107685545198" r="2.642785677136" fill="red" opacity="0"/></g><g class="schematic-port-hover sch-port-hover" data-schematic-port-id="source_port_6"><circle cx="249.549615088204" cy="491.0687790313788" r="2.642785677136" fill="red" opacity="0"/></g><g class="schematic-port-hover sch-port-hover" data-schematic-port-id="source_port_7"><circle cx="176.71321293099595" cy="491.1048993046212" r="2.642785677136" fill="red" opacity="0"/></g><g class="schematic-port-hover sch-port-hover" data-schematic-port-id="source_port_8"><circle cx="573.21096251938" cy="491.086839168" r="2.642785677136" fill="red" opacity="0"/></g><g class="schematic-port-hover sch-port-hover" data-schematic-port-id="source_port_9"><circle cx="645.88756864062" cy="491.086839168" r="2.642785677136" fill="red" opacity="0"/></g><g class="schematic-port-hover sch-port-hover" data-schematic-port-id="source_port_10"><circle cx="1041.644723791736" cy="491.086839168" r="2.642785677136" fill="red" opacity="0"/></g><g class="schematic-port-hover sch-port-hover" data-schematic-port-id="source_port_11"><circle cx="970.289510509064" cy="491.086839168" r="2.642785677136" fill="red" opacity="0"/></g><path class="net-label sch-net-label" d="
    M 176.79311094897997,94.6689875976
    L 173.22535028484637,101.8045089258672
    L 125.24998095923752,101.80450892586718
    L 125.24998095923752,87.53346626933279
    L 173.22535028484637,87.53346626933279
    Z
  " fill="rgba(255, 255, 255, 0.6)" stroke="rgb(132, 0, 0)" stroke-width="1.321392838568px"/><text class="net-label-text sch-net-label-text" x="170.84684317542397" y="94.6689875976" fill="rgb(132, 0, 0)" text-anchor="end" dominant-baseline="central" font-family="sans-serif" font-variant-numeric="tabular-nums" font-size="11.892535547112px" transform="">FILTER</text><rect class="component-overlay sch-component-overlay sch-net-label-overlay" x="248.21439387358035" y="137.68032449298835" width="15.856714062815996" height="11.892535547112004" fill="transparent"/><path class="sch-net-label-symbol-path" d="M 248.21439387358035 149.57286004010035 L 264.07110793639634 149.57286004010035" stroke="rgb(132, 0, 0)" fill="none" stroke-width="1.321392838568px" stroke-linecap="round"/><path class="sch-net-label-symbol-path" d="M 256.14275090498836 149.57286004010035 L 256.14275090498836 137.68032449298835" stroke="rgb(132, 0, 0)" fill="none" stroke-width="1.321392838568px" stroke-linecap="round"/><text class="sch-net-label-symbol-text" x="256.14275090498836" y="152.87634213652035" fill="rgb(15, 15, 15)" font-family="sans-serif" text-anchor="middle" dominant-baseline="hanging" font-size="11.892535547112px">AGND</text><rect class="component-overlay sch-component-overlay sch-net-label-overlay" x="642.6501561861284" y="62.889489830039594" width="15.856714062816081" height="11.892535547112004" fill="transparent"/><path class="sch-net-label-symbol-path" d="M 658.5068702489444 62.889489830039594 L 642.6501561861284 62.889489830039594" stroke="rgb(132, 0, 0)" fill="none" stroke-width="1.321392838568px" stroke-linecap="round"/><path class="sch-net-label-symbol-path" d="M 650.5785132175364 62.889489830039594 L 650.5785132175364 74.7820253771516" stroke="rgb(132, 0, 0)" fill="none" stroke-width="1.321392838568px" stroke-linecap="round"/><text class="sch-net-label-symbol-text" x="650.5785132175364" y="59.586007733619596" fill="rgb(15, 15, 15)" font-family="sans-serif" text-anchor="middle" dominant-baseline="ideographic" font-size="11.892535547112px">VREF</text><path class="net-label sch-net-label" d="
    M 575.193051777232,94.6689875976
    L 571.6252911130983,101.8045089258672
    L 524.8039381998389,101.80450892586718
    L 524.8039381998389,87.53346626933279
    L 571.6252911130983,87.53346626933279
    Z
  " fill="rgba(255, 255, 255, 0.6)" stroke="rgb(132, 0, 0)" stroke-width="1.321392838568px"/><text class="net-label-text sch-net-label-text" x="569.246784003676" y="94.6689875976" fill="rgb(132, 0, 0)" text-anchor="end" dominant-baseline="central" font-family="sans-serif" font-variant-numeric="tabular-nums" font-size="11.892535547112px" transform="">CLAMP</text><path class="net-label sch-net-label" d="
    M 969.62881408978,95.99038043616798
    L 966.0610534256464,103.12590176443518
    L 943.4035708870005,103.12590176443518
    L 943.4035708870005,88.85485910790078
    L 966.0610534256464,88.85485910790078
    Z
  " fill="rgba(255, 255, 255, 0.6)" stroke="rgb(132, 0, 0)" stroke-width="1.321392838568px"/><text class="net-label-text sch-net-label-text" x="963.682546316224" y="95.99038043616798" fill="rgb(132, 0, 0)" text-anchor="end" dominant-baseline="central" font-family="sans-serif" font-variant-numeric="tabular-nums" font-size="11.892535547112px" transform="">RF</text><path class="net-label sch-net-label" d="
    M 1050.9605433036404,123.14500326874037
    L 1058.0960646319077,126.71276393287397
    L 1058.0960646319077,181.29509745132282
    L 1043.8250219753731,181.29509745132282
    L 1043.8250219753731,126.71276393287397
    Z
  " fill="rgba(255, 255, 255, 0.6)" stroke="rgb(132, 0, 0)" stroke-width="1.321392838568px"/><text class="net-label-text sch-net-label-text" x="1050.9605433036404" y="129.09127104229637" fill="rgb(132, 0, 0)" text-anchor="start" dominant-baseline="central" font-family="sans-serif" font-variant-numeric="tabular-nums" font-size="11.892535547112px" transform="rotate(90 1050.9605433036404 129.09127104229637)">RF_GND</text><rect class="component-overlay sch-component-overlay sch-net-label-overlay" x="248.29429189156437" y="530.7766338303472" width="15.856714062815996" height="11.892535547111947" fill="transparent"/><path class="sch-net-label-symbol-path" d="M 248.29429189156437 542.6691693774592 L 264.15100595438037 542.6691693774592" stroke="rgb(132, 0, 0)" fill="none" stroke-width="1.321392838568px" stroke-linecap="round"/><path class="sch-net-label-symbol-path" d="M 256.2226489229724 542.6691693774592 L 256.2226489229724 530.7766338303472" stroke="rgb(132, 0, 0)" fill="none" stroke-width="1.321392838568px" stroke-linecap="round"/><text class="sch-net-label-symbol-text" x="256.2226489229724" y="545.9726514738792" fill="rgb(15, 15, 15)" font-family="sans-serif" text-anchor="middle" dominant-baseline="hanging" font-size="11.892535547112px">GND</text><rect class="component-overlay sch-component-overlay sch-net-label-overlay" x="162.11182206481956" y="439.5045089585408" width="15.856714062816025" height="11.892535547111947" fill="transparent"/><path class="sch-net-label-symbol-path" d="M 177.9685361276356 439.5045089585408 L 162.11182206481956 439.5045089585408" stroke="rgb(132, 0, 0)" fill="none" stroke-width="1.321392838568px" stroke-linecap="round"/><path class="sch-net-label-symbol-path" d="M 170.04017909622758 439.5045089585408 L 170.04017909622758 451.39704450565273" stroke="rgb(132, 0, 0)" fill="none" stroke-width="1.321392838568px" stroke-linecap="round"/><text class="sch-net-label-symbol-text" x="170.04017909622758" y="436.2010268621207" fill="rgb(15, 15, 15)" font-family="sans-serif" text-anchor="middle" dominant-baseline="ideographic" font-size="11.892535547112px">VDD</text><rect class="component-overlay sch-component-overlay sch-net-label-overlay" x="558.6095716532036" y="452.7003772075997" width="15.856714062816081" height="11.892535547111947" fill="transparent"/><path class="sch-net-label-symbol-path" d="M 574.4662857160197 452.7003772075997 L 558.6095716532036 452.7003772075997" stroke="rgb(132, 0, 0)" fill="none" stroke-width="1.321392838568px" stroke-linecap="round"/><path class="sch-net-label-symbol-path" d="M 566.5379286846116 452.7003772075997 L 566.5379286846116 464.5929127547116" stroke="rgb(132, 0, 0)" fill="none" stroke-width="1.321392838568px" stroke-linecap="round"/><text class="sch-net-label-symbol-text" x="566.5379286846116" y="449.3968951111796" fill="rgb(15, 15, 15)" font-family="sans-serif" text-anchor="middle" dominant-baseline="ideographic" font-size="11.892535547112px">VCC</text><path class="net-label sch-net-label" d="
    M 645.88756864062,491.086839168
    L 649.4553293047536,483.9513178397328
    L 682.789665979029,483.9513178397328
    L 682.789665979029,498.2223604962672
    L 649.4553293047536,498.2223604962672
    Z
  " fill="rgba(255, 255, 255, 0.6)" stroke="rgb(132, 0, 0)" stroke-width="1.321392838568px"/><text class="net-label-text sch-net-label-text" x="651.833836414176" y="491.086839168" fill="rgb(132, 0, 0)" text-anchor="start" dominant-baseline="central" font-family="sans-serif" font-variant-numeric="tabular-nums" font-size="11.892535547112px" transform="">LINK</text><path class="net-label sch-net-label" d="
    M 1041.644723791736,491.086839168
    L 1045.2124844558696,483.9513178397328
    L 1074.7500190406595,483.9513178397328
    L 1074.7500190406595,498.2223604962672
    L 1045.2124844558696,498.2223604962672
    Z
  " fill="rgba(255, 255, 255, 0.6)" stroke="rgb(132, 0, 0)" stroke-width="1.321392838568px"/><text class="net-label-text sch-net-label-text" x="1047.590991565292" y="491.086839168" fill="rgb(132, 0, 0)" text-anchor="start" dominant-baseline="central" font-family="sans-serif" font-variant-numeric="tabular-nums" font-size="11.892535547112px" transform="">LED</text><rect class="component-overlay sch-component-overlay sch-net-label-overlay" x="954.0363785946777" y="514.2772834848683" width="15.856714062816081" height="11.892535547111947" fill="transparent"/><path class="sch-net-label-symbol-path" d="M 954.0363785946777 526.1698190319803 L 969.8930926574938 526.1698190319803" stroke="rgb(132, 0, 0)" fill="none" stroke-width="1.321392838568px" stroke-linecap="round"/><path class="sch-net-label-symbol-path" d="M 961.9647356260857 526.1698190319803 L 961.9647356260857 514.2772834848683" stroke="rgb(132, 0, 0)" fill="none" stroke-width="1.321392838568px" stroke-linecap="round"/><text class="sch-net-label-symbol-text" x="961.9647356260857" y="529.4733011284003" fill="rgb(15, 15, 15)" font-family="sans-serif" text-anchor="middle" dominant-baseline="hanging" font-size="11.892535547112px">DGND</text>
  </g>
  <g transform="translate(0, 600) scale(1, 1) translate(0, 0)">
    <rect width="100%" height="100%" fill="#fff" />
<text x="18" y="40" fill="#d00" font-family="Menlo, Consolas, monospace" font-size="16">
    <tspan x="18" dy="0">&lt;SchematicBoxPositions&gt;</tspan>
    <tspan x="18" dy="22">&lt;SchematicBoxPlacement componentName=&quot;C1&quot; positionAnchor=&quot;center&quot; schX=&quot;-6&quot; schY=&quot;3&quot; width=&quot;1.1&quot;</tspan>
    <tspan x="18" dy="22">  height=&quot;0.84&quot; /&gt;</tspan>
    <tspan x="18" dy="22">&lt;SchematicBoxPlacement componentName=&quot;D1&quot; positionAnchor=&quot;center&quot; schX=&quot;0&quot; schY=&quot;3&quot; width=&quot;1.04&quot;</tspan>
    <tspan x="18" dy="22">  height=&quot;0.54&quot; /&gt;</tspan>
    <tspan x="18" dy="22">&lt;SchematicBoxPlacement componentName=&quot;L1&quot; positionAnchor=&quot;center&quot; schX=&quot;6&quot; schY=&quot;3&quot; width=&quot;1.16&quot;</tspan>
    <tspan x="18" dy="22">  height=&quot;0.46&quot; /&gt;</tspan>
    <tspan x="18" dy="22">&lt;SchematicBoxPlacement componentName=&quot;C2&quot; positionAnchor=&quot;center&quot; schX=&quot;-6&quot; schY=&quot;-3&quot;</tspan>
    <tspan x="18" dy="22">  width=&quot;1.058&quot; height=&quot;0.72&quot; /&gt;</tspan>
    <tspan x="18" dy="22">&lt;SchematicBoxPlacement componentName=&quot;R0&quot; positionAnchor=&quot;center&quot; schX=&quot;0&quot; schY=&quot;-3&quot; width=&quot;1.1&quot;</tspan>
    <tspan x="18" dy="22">  height=&quot;0.389&quot; /&gt;</tspan>
    <tspan x="18" dy="22">&lt;SchematicBoxPlacement componentName=&quot;LED1&quot; positionAnchor=&quot;center&quot; schX=&quot;6&quot; schY=&quot;-3&quot;</tspan>
    <tspan x="18" dy="22">  width=&quot;1.13&quot; height=&quot;0.65&quot; /&gt;</tspan>
    <tspan x="18" dy="22">&lt;/SchematicBoxPositions&gt;</tspan>
    <tspan x="18" dy="22">&lt;SchematicPlacementIssues&gt;</tspan>
    <tspan x="18" dy="22">&lt;TwoPinComponentShouldBeVertical componentName=&quot;C1&quot; railPin=&quot;pin2&quot; railType=&quot;ground&quot;</tspan>
    <tspan x="18" dy="22">  deltaSchRotation=&quot;-90&quot; suggestedRailFacingDirection=&quot;down&quot; message=&quot;rotate C1 by -90° so its</tspan>
    <tspan x="18" dy="22">  ground-connected pin faces down and the component is vertical&quot; /&gt;</tspan>
    <tspan x="18" dy="22">&lt;TwoPinComponentShouldBeVertical componentName=&quot;D1&quot; railPin=&quot;pin1&quot; railType=&quot;power&quot;</tspan>
    <tspan x="18" dy="22">  deltaSchRotation=&quot;90&quot; suggestedRailFacingDirection=&quot;up&quot; message=&quot;rotate D1 by 90° so its</tspan>
    <tspan x="18" dy="22">  power-connected pin faces up and the component is vertical&quot; /&gt;</tspan>
    <tspan x="18" dy="22">&lt;TwoPinComponentShouldBeVertical componentName=&quot;L1&quot; railPin=&quot;pin2&quot; railType=&quot;ground&quot;</tspan>
    <tspan x="18" dy="22">  deltaSchRotation=&quot;-90&quot; suggestedRailFacingDirection=&quot;down&quot; message=&quot;rotate L1 by -90° so its</tspan>
    <tspan x="18" dy="22">  ground-connected pin faces down and the component is vertical&quot; /&gt;</tspan>
    <tspan x="18" dy="22">&lt;TwoPinComponentShouldBeVertical componentName=&quot;C2&quot; railPin=&quot;pin1&quot; railType=&quot;power&quot;</tspan>
    <tspan x="18" dy="22">  deltaSchRotation=&quot;-90&quot; suggestedRailFacingDirection=&quot;up&quot; message=&quot;rotate C2 by -90° so its</tspan>
    <tspan x="18" dy="22">  power-connected pin faces up and the component is vertical&quot; /&gt;</tspan>
    <tspan x="18" dy="22">&lt;TwoPinComponentShouldBeVertical componentName=&quot;R0&quot; railPin=&quot;pin1&quot; railType=&quot;power&quot;</tspan>
    <tspan x="18" dy="22">  deltaSchRotation=&quot;-90&quot; suggestedRailFacingDirection=&quot;up&quot; message=&quot;rotate R0 by -90° so its</tspan>
    <tspan x="18" dy="22">  power-connected pin faces up and the component is vertical&quot; /&gt;</tspan>
    <tspan x="18" dy="22">&lt;TwoPinComponentShouldBeVertical componentName=&quot;LED1&quot; railPin=&quot;pin2&quot; railType=&quot;ground&quot;</tspan>
    <tspan x="18" dy="22">  deltaSchRotation=&quot;90&quot; suggestedRailFacingDirection=&quot;down&quot; message=&quot;rotate LED1 by 90° so its</tspan>
    <tspan x="18" dy="22">  ground-connected pin faces down and the component is vertical&quot; /&gt;</tspan>
    <tspan x="18" dy="22">&lt;/SchematicPlacementIssues&gt;</tspan>
</text>
  </g>
</svg>
